# xmcd CD database file
#
# Track frame offsets:
#	150
#	21302
#	35807
#	49855
#	72387
#	90277
#	106697
#	122592
#	142732
#	158550
#
# Disc length: 2339 seconds
#
# Revision: 1
# Processed by: cddbd v1.5.2PL0 Copyright (c) Steve Scherf et al.
# Submitted via: CDex 1.51
#
DISCID=7809210a
DTITLE=James Blunt - All The Lost Souls
DYEAR=2007
DGENRE=Rhythmic Soul
TTITLE0=1973
TTITLE1=One Of The Brightest Stars
TTITLE2=I'll Take Everything
TTITLE3=Same Mistake
TTITLE4=Carry You Home
TTITLE5=Give Me Some Love
TTITLE6=I Really Want You
TTITLE7=Shine On
TTITLE8=Annie
TTITLE9=I Can't Hear The Music
EXTD=YEAR: 2007
EXTT0=
EXTT1=
EXTT2=
EXTT3=
EXTT4=
EXTT5=
EXTT6=
EXTT7=
EXTT8=
EXTT9=
PLAYORDER=
